<svg width="99" height="42" viewBox="0 0 99 42" fill="none" xmlns="http://www.w3.org/2000/svg">
<path d="M19.105 15.575V26H17.395V18.86L14.215 26H13.03L9.835 18.86V26H8.125V15.575H9.97L13.63 23.75L17.275 15.575H19.105ZM28.7925 17.735L23.7225 29.885H21.9525L23.6325 25.865L20.3775 17.735H22.2825L24.6075 24.035L27.0225 17.735H28.7925ZM41.2695 18.68C41.2695 19.21 41.1445 19.71 40.8945 20.18C40.6445 20.65 40.2445 21.035 39.6945 21.335C39.1445 21.625 38.4395 21.77 37.5795 21.77H35.6895V26H33.9795V15.575H37.5795C38.3795 15.575 39.0545 15.715 39.6045 15.995C40.1645 16.265 40.5795 16.635 40.8495 17.105C41.1295 17.575 41.2695 18.1 41.2695 18.68ZM37.5795 20.375C38.2295 20.375 38.7145 20.23 39.0345 19.94C39.3545 19.64 39.5145 19.22 39.5145 18.68C39.5145 17.54 38.8695 16.97 37.5795 16.97H35.6895V20.375H37.5795ZM44.6104 18.935C44.8604 18.515 45.1904 18.19 45.6004 17.96C46.0204 17.72 46.5154 17.6 47.0854 17.6V19.37H46.6504C45.9804 19.37 45.4704 19.54 45.1204 19.88C44.7804 20.22 44.6104 20.81 44.6104 21.65V26H42.9004V17.735H44.6104V18.935ZM52.2422 26.135C51.4622 26.135 50.7572 25.96 50.1272 25.61C49.4972 25.25 49.0022 24.75 48.6422 24.11C48.2822 23.46 48.1022 22.71 48.1022 21.86C48.1022 21.02 48.2872 20.275 48.6572 19.625C49.0272 18.975 49.5322 18.475 50.1722 18.125C50.8122 17.775 51.5272 17.6 52.3172 17.6C53.1072 17.6 53.8222 17.775 54.4622 18.125C55.1022 18.475 55.6072 18.975 55.9772 19.625C56.3472 20.275 56.5322 21.02 56.5322 21.86C56.5322 22.7 56.3422 23.445 55.9622 24.095C55.5822 24.745 55.0622 25.25 54.4022 25.61C53.7522 25.96 53.0322 26.135 52.2422 26.135ZM52.2422 24.65C52.6822 24.65 53.0922 24.545 53.4722 24.335C53.8622 24.125 54.1772 23.81 54.4172 23.39C54.6572 22.97 54.7772 22.46 54.7772 21.86C54.7772 21.26 54.6622 20.755 54.4322 20.345C54.2022 19.925 53.8972 19.61 53.5172 19.4C53.1372 19.19 52.7272 19.085 52.2872 19.085C51.8472 19.085 51.4372 19.19 51.0572 19.4C50.6872 19.61 50.3922 19.925 50.1722 20.345C49.9522 20.755 49.8422 21.26 49.8422 21.86C49.8422 22.75 50.0672 23.44 50.5172 23.93C50.9772 24.41 51.5522 24.65 52.2422 24.65ZM59.0927 16.64C58.7827 16.64 58.5227 16.535 58.3127 16.325C58.1027 16.115 57.9977 15.855 57.9977 15.545C57.9977 15.235 58.1027 14.975 58.3127 14.765C58.5227 14.555 58.7827 14.45 59.0927 14.45C59.3927 14.45 59.6477 14.555 59.8577 14.765C60.0677 14.975 60.1727 15.235 60.1727 15.545C60.1727 15.855 60.0677 16.115 59.8577 16.325C59.6477 16.535 59.3927 16.64 59.0927 16.64ZM59.9327 27.62C59.9327 28.43 59.7277 29.015 59.3177 29.375C58.9177 29.745 58.3327 29.93 57.5627 29.93H56.6777V28.49H57.2627C57.6127 28.49 57.8577 28.42 57.9977 28.28C58.1477 28.15 58.2227 27.93 58.2227 27.62V17.735H59.9327V27.62ZM69.7527 21.665C69.7527 21.975 69.7327 22.255 69.6927 22.505H63.3777C63.4277 23.165 63.6727 23.695 64.1127 24.095C64.5527 24.495 65.0927 24.695 65.7327 24.695C66.6527 24.695 67.3027 24.31 67.6827 23.54H69.5277C69.2777 24.3 68.8227 24.925 68.1627 25.415C67.5127 25.895 66.7027 26.135 65.7327 26.135C64.9427 26.135 64.2327 25.96 63.6027 25.61C62.9827 25.25 62.4927 24.75 62.1327 24.11C61.7827 23.46 61.6077 22.71 61.6077 21.86C61.6077 21.01 61.7777 20.265 62.1177 19.625C62.4677 18.975 62.9527 18.475 63.5727 18.125C64.2027 17.775 64.9227 17.6 65.7327 17.6C66.5127 17.6 67.2077 17.77 67.8177 18.11C68.4277 18.45 68.9027 18.93 69.2427 19.55C69.5827 20.16 69.7527 20.865 69.7527 21.665ZM67.9677 21.125C67.9577 20.495 67.7327 19.99 67.2927 19.61C66.8527 19.23 66.3077 19.04 65.6577 19.04C65.0677 19.04 64.5627 19.23 64.1427 19.61C63.7227 19.98 63.4727 20.485 63.3927 21.125H67.9677ZM70.8655 21.86C70.8655 21.01 71.0355 20.265 71.3755 19.625C71.7255 18.975 72.2055 18.475 72.8155 18.125C73.4255 17.775 74.1255 17.6 74.9155 17.6C75.9155 17.6 76.7405 17.84 77.3905 18.32C78.0505 18.79 78.4955 19.465 78.7255 20.345H76.8805C76.7305 19.935 76.4905 19.615 76.1605 19.385C75.8305 19.155 75.4155 19.04 74.9155 19.04C74.2155 19.04 73.6555 19.29 73.2355 19.79C72.8255 20.28 72.6205 20.97 72.6205 21.86C72.6205 22.75 72.8255 23.445 73.2355 23.945C73.6555 24.445 74.2155 24.695 74.9155 24.695C75.9055 24.695 76.5605 24.26 76.8805 23.39H78.7255C78.4855 24.23 78.0355 24.9 77.3755 25.4C76.7155 25.89 75.8955 26.135 74.9155 26.135C74.1255 26.135 73.4255 25.96 72.8155 25.61C72.2055 25.25 71.7255 24.75 71.3755 24.11C71.0355 23.46 70.8655 22.71 70.8655 21.86ZM82.4247 19.13V23.705C82.4247 24.015 82.4947 24.24 82.6347 24.38C82.7847 24.51 83.0347 24.575 83.3847 24.575H84.4347V26H83.0847C82.3147 26 81.7247 25.82 81.3147 25.46C80.9047 25.1 80.6997 24.515 80.6997 23.705V19.13H79.7247V17.735H80.6997V15.68H82.4247V17.735H84.4347V19.13H82.4247ZM89.0107 26.135C88.3607 26.135 87.7757 26.02 87.2557 25.79C86.7457 25.55 86.3407 25.23 86.0407 24.83C85.7407 24.42 85.5807 23.965 85.5607 23.465L87.3307 23.465C87.3607 23.815 87.5257 24.11 87.8257 24.35C88.1357 24.58 88.5207 24.695 88.9807 24.695C89.4607 24.695 89.8307 24.605 90.0907 24.425C90.3607 24.235 90.4957 23.995 90.4957 23.705C90.4957 23.395 90.3457 23.165 90.0457 23.015C89.7557 22.865 89.2907 22.7 88.6507 22.52C88.0307 22.35 87.5257 22.185 87.1357 22.025C86.7457 21.865 86.4057 21.62 86.1157 21.29C85.8357 20.96 85.6957 20.525 85.6957 19.985C85.6957 19.545 85.8257 19.145 86.0857 18.785C86.3457 18.415 86.7157 18.125 87.1957 17.915C87.6857 17.705 88.2457 17.6 88.8757 17.6C89.8157 17.6 90.5707 17.84 91.1407 18.32C91.7207 18.79 92.0307 19.435 92.0707 20.255H90.3607C90.3307 19.885 90.1807 19.59 89.9107 19.37C89.6407 19.15 89.2757 19.04 88.8157 19.04C88.3657 19.04 88.0207 19.125 87.7807 19.295C87.5407 19.465 87.4207 19.69 87.4207 19.97C87.4207 20.19 87.5007 20.375 87.6607 20.525C87.8207 20.675 88.0157 20.795 88.2457 20.885C88.4757 20.965 88.8157 21.07 89.2657 21.2C89.8657 21.36 90.3557 21.525 90.7357 21.695C91.1257 21.855 91.4607 22.095 91.7407 22.415C92.0207 22.735 92.1657 23.16 92.1757 23.69C92.1757 24.16 92.0457 24.58 91.7857 24.95C91.5257 25.32 91.1557 25.61 90.6757 25.82C90.2057 26.03 89.6507 26.135 89.0107 26.135Z" fill="#FF6300"/>
<path d="M98.75 21C98.75 23.814 97.4068 26.5164 94.933 28.9976C92.4582 31.4799 88.8647 33.7268 84.4042 35.6191C75.4841 39.4034 63.1438 41.75 49.5 41.75C35.8562 41.75 23.5159 39.4034 14.5959 35.6191C10.1354 33.7268 6.54176 31.4799 4.067 28.9976C1.59324 26.5164 0.25 23.814 0.25 21C0.25 18.186 1.59324 15.4836 4.067 13.0024C6.54176 10.5201 10.1354 8.27324 14.5959 6.3809C23.5159 2.59664 35.8562 0.25 49.5 0.25C63.1438 0.25 75.4841 2.59664 84.4042 6.3809C88.8647 8.27324 92.4582 10.5201 94.933 13.0024C97.4068 15.4836 98.75 18.186 98.75 21Z" stroke="#EDC3A9" stroke-width="0.5"/>
</svg>
