<svg width="509" height="400" viewBox="0 0 509 400" fill="none" xmlns="http://www.w3.org/2000/svg">
<path d="M101.979 400C158.3 400 203.957 354.343 203.957 298.021C203.957 241.7 158.3 196.043 101.979 196.043C45.6574 196.043 0 241.7 0 298.021C0 354.343 45.6574 400 101.979 400Z" fill="#FFB78A"/>
<path d="M436.156 323.796C476.191 323.796 508.646 291.342 508.646 251.307C508.646 211.272 476.191 178.817 436.156 178.817C396.121 178.817 363.666 211.272 363.666 251.307C363.666 291.342 396.121 323.796 436.156 323.796Z" fill="#FFEFE6"/>
<path d="M95.8313 130.917C118.219 130.917 136.367 112.768 136.367 90.3812C136.367 67.994 118.219 49.8456 95.8313 49.8456C73.4441 49.8456 55.2957 67.994 55.2957 90.3812C55.2957 112.768 73.4441 130.917 95.8313 130.917Z" fill="#FFCFB0"/>
<path d="M265.775 390.389L160.301 363.178C90.5264 345.172 48.5553 274.055 66.5607 204.28L93.7717 98.8067C111.777 29.0318 182.894 -12.9393 252.669 5.06613L358.143 32.2771C427.917 50.2825 469.889 121.399 451.883 191.174L424.672 296.648C406.698 366.392 335.55 408.394 265.775 390.389Z" fill="#FF9654"/>
</svg>
